<svg width="51" height="47" viewBox="0 0 51 47" fill="none" xmlns="http://www.w3.org/2000/svg">
<path fill-rule="evenodd" clip-rule="evenodd" d="M13.105 46.553L31.9893 16.1504L51.0005 46.4742L13.105 46.553ZM31.9981 20.6999L17.4444 44.132L46.6506 44.0725L31.9981 20.6999Z" fill="#F7AC00"/>
<path fill-rule="evenodd" clip-rule="evenodd" d="M25.5722 41.8568C14.0574 41.8568 4.66885 32.4395 4.64507 20.9616C4.63356 15.3894 6.80061 10.1062 10.745 6.15867C14.6902 2.21116 19.9418 0.0114687 25.5324 0C37.0933 0 46.4772 9.40735 46.5017 20.8852C46.524 32.3867 37.1547 41.8568 25.6167 41.8568H25.5722ZM25.5815 2.27309C20.5608 2.28303 15.8869 4.22352 12.3759 7.73752C8.86487 11.2515 6.89496 15.9177 6.9034 20.8768C6.92488 31.0923 15.5156 39.4032 25.4879 39.4032V40.5501L25.5699 39.4032C35.8391 39.3826 44.1989 31.0372 44.179 20.8003C44.1583 10.5848 35.8268 2.27309 25.5815 2.27309Z" fill="#3D2913"/>
<path fill-rule="evenodd" clip-rule="evenodd" d="M0.696289 46.5538L21.0766 13.7422L41.5941 46.4686L0.696289 46.5538ZM21.0862 18.2925L5.03575 44.1328L37.2443 44.0668L21.0862 18.2925Z" fill="#F7AC00"/>
</svg>
