<?xml version="1.0" encoding="UTF-8" standalone="no"?>
<svg width="75px" height="78px" viewBox="0 0 75 78" version="1.1" xmlns="http://www.w3.org/2000/svg" xmlns:xlink="http://www.w3.org/1999/xlink" xmlns:sketch="http://www.bohemiancoding.com/sketch/ns">
    <!-- Generator: Sketch 3.0.4 (8053) - http://www.bohemiancoding.com/sketch -->
    <title>Logo</title>
    <desc>Created with Sketch.</desc>
    <defs></defs>
    <g id="Welcome" stroke="none" stroke-width="1" fill="none" fill-rule="evenodd" sketch:type="MSPage">
        <g id="Desktop-HD" sketch:type="MSArtboardGroup" transform="translate(-64.000000, -55.000000)">
            <g id="Logo" sketch:type="MSLayerGroup" transform="translate(64.000000, 55.000000)">
                <path d="M13.9383621,77.8823443 L44.3650862,28.8971639 L74.9961207,77.7554262 L13.9383621,77.8823443 L13.9383621,77.8823443 Z M44.3793103,36.2273279 L20.9301724,73.9815574 L67.9875,73.8857213 L44.3793103,36.2273279 L44.3793103,36.2273279 Z" id="Fill-1" fill="#F7AC00" sketch:type="MSShapeGroup"></path>
                <path d="M38.9353448,71.2295082 C19.524569,71.2295082 3.69827586,55.2779836 3.65818966,35.8362131 C3.6387931,26.3976557 7.29181034,17.4486393 13.9409483,10.7621311 C20.5913793,4.07562295 29.4439655,0.349672131 38.8681034,0.330245902 C58.3564655,0.330245902 74.175,16.2649344 74.2163793,35.7067049 C74.2538793,55.188623 58.4599138,71.2295082 39.0103448,71.2295082 L38.9353448,71.2295082 L38.9353448,71.2295082 Z M38.9508621,4.18052459 C30.4875,4.19736066 22.6086207,7.48427869 16.6900862,13.4364754 C10.7715517,19.3886721 7.45086207,27.2925574 7.46508621,35.692459 C7.5012931,52.9960492 21.9827586,67.0735902 38.7931034,67.0735902 L38.7931034,69.0162131 L38.9314655,67.0735902 C56.2422414,67.038623 70.3344828,52.9028033 70.3008621,35.5629508 C70.2659483,18.2593607 56.2215517,4.18052459 38.9508621,4.18052459 L38.9508621,4.18052459 Z" id="Fill-2" fill="#3D2913" sketch:type="MSShapeGroup"></path>
                <path d="M0.307758621,77.8823443 L33.1448276,25.0158033 L66.2030172,77.7450656 L0.307758621,77.8823443 L0.307758621,77.8823443 Z M33.1603448,32.3472623 L7.29956897,73.9815574 L59.1943966,73.8753607 L33.1603448,32.3472623 L33.1603448,32.3472623 Z" id="Fill-3" fill="#F7AC00" sketch:type="MSShapeGroup"></path>
            </g>
        </g>
    </g>
</svg>